Altinn-DINExp.ufo
<glyph name="percent" format="2">
  <advance width="939"/>
  <unicode hex="0025"/>
  <outline>
    <contour>
      <point x="43" y="357"/>
      <point x="43" y="440" type="qcurve" smooth="yes"/>
      <point x="43" y="551" type="line" smooth="yes"/>
      <point x="43" y="631"/>
      <point x="118" y="714"/>
      <point x="189" y="714" type="qcurve" smooth="yes"/>
      <point x="335" y="714"/>
      <point x="336" y="551" type="qcurve" smooth="yes"/>
      <point x="336" y="440" type="line" smooth="yes"/>
      <point x="336" y="357"/>
      <point x="262" y="272"/>
      <point x="188" y="272" type="qcurve" smooth="yes"/>
      <point x="116" y="272"/>
    </contour>
    <contour>
      <point x="624" y="709" type="line"/>
      <point x="699" y="709" type="line"/>
      <point x="309" y="0" type="line"/>
      <point x="234" y="0" type="line"/>
    </contour>
    <contour>
      <point x="256" y="390"/>
      <point x="256" y="445" type="qcurve" smooth="yes"/>
      <point x="256" y="543" type="line" smooth="yes"/>
      <point x="256" y="596"/>
      <point x="225" y="645"/>
      <point x="189" y="645" type="qcurve" smooth="yes"/>
      <point x="153" y="645"/>
      <point x="122" y="596"/>
      <point x="122" y="543" type="qcurve" smooth="yes"/>
      <point x="122" y="445" type="line" smooth="yes"/>
      <point x="122" y="390"/>
      <point x="154" y="341"/>
      <point x="189" y="341" type="qcurve" smooth="yes"/>
      <point x="225" y="341"/>
    </contour>
    <contour>
      <point x="603" y="162" type="qcurve" smooth="yes"/>
      <point x="603" y="271" type="line" smooth="yes"/>
      <point x="603" y="352"/>
      <point x="677" y="434"/>
      <point x="750" y="434" type="qcurve" smooth="yes"/>
      <point x="896" y="434"/>
      <point x="896" y="271" type="qcurve" smooth="yes"/>
      <point x="896" y="162" type="line" smooth="yes"/>
      <point x="896" y="-6"/>
      <point x="749" y="-6" type="qcurve" smooth="yes"/>
      <point x="603" y="-6"/>
    </contour>
    <contour>
      <point x="816" y="112"/>
      <point x="816" y="166" type="qcurve" smooth="yes"/>
      <point x="816" y="263" type="line" smooth="yes"/>
      <point x="816" y="317"/>
      <point x="785" y="366"/>
      <point x="750" y="366" type="qcurve" smooth="yes"/>
      <point x="714" y="366"/>
      <point x="682" y="317"/>
      <point x="682" y="263" type="qcurve" smooth="yes"/>
      <point x="682" y="166" type="line" smooth="yes"/>
      <point x="682" y="112"/>
      <point x="714" y="62"/>
      <point x="750" y="62" type="qcurve" smooth="yes"/>
      <point x="785" y="62"/>
    </contour>
  </outline>
</glyph>
<glyph name="parenleft" format="2">
  <advance width="320"/>
  <unicode hex="0028"/>
  <outline>
    <contour>
      <point x="53" y="221"/>
      <point x="53" y="336" type="qcurve" smooth="yes"/>
      <point x="53" y="452"/>
      <point x="125" y="666"/>
      <point x="195" y="758" type="qcurve"/>
      <point x="267" y="758" type="line"/>
      <point x="207" y="668"/>
      <point x="140" y="447"/>
      <point x="140" y="336" type="qcurve" smooth="yes"/>
      <point x="140" y="223"/>
      <point x="207" y="3"/>
      <point x="267" y="-86" type="qcurve"/>
      <point x="194" y="-86" type="line"/>
      <point x="124" y="8"/>
    </contour>
  </outline>
</glyph>
<glyph name="parenright" format="2">
  <advance width="320"/>
  <unicode hex="0029"/>
  <outline>
    <contour>
      <point x="180" y="223"/>
      <point x="180" y="336" type="qcurve" smooth="yes"/>
      <point x="180" y="448"/>
      <point x="114" y="668"/>
      <point x="53" y="758" type="qcurve"/>
      <point x="126" y="758" type="line"/>
      <point x="196" y="666"/>
      <point x="267" y="452"/>
      <point x="267" y="336" type="qcurve" smooth="yes"/>
      <point x="267" y="221"/>
      <point x="197" y="8"/>
      <point x="127" y="-86" type="qcurve"/>
      <point x="53" y="-86" type="line"/>
      <point x="114" y="3"/>
    </contour>
  </outline>
</glyph>
<glyph name="hyphen" format="2">
  <advance width="432"/>
  <unicode hex="002D"/>
  <outline>
    <contour>
      <point x="53" y="396" type="line"/>
      <point x="379" y="396" type="line"/>
      <point x="379" y="313" type="line"/>
      <point x="53" y="313" type="line"/>
    </contour>
  </outline>
</glyph>
<glyph name="zero" format="2">
  <advance width="562"/>
  <unicode hex="0030"/>
  <outline>
    <contour>
      <point x="62" y="120"/>
      <point x="62" y="248" type="qcurve" smooth="yes"/>
      <point x="62" y="464" type="line" smooth="yes"/>
      <point x="62" y="589"/>
      <point x="173" y="717"/>
      <point x="282" y="717" type="qcurve" smooth="yes"/>
      <point x="391" y="717"/>
      <point x="502" y="589"/>
      <point x="502" y="464" type="qcurve" smooth="yes"/>
      <point x="502" y="248" type="line" smooth="yes"/>
      <point x="502" y="120"/>
      <point x="390" y="-10"/>
      <point x="282" y="-10" type="qcurve" smooth="yes"/>
      <point x="173" y="-10"/>
    </contour>
    <contour>
      <point x="409" y="160"/>
      <point x="409" y="255" type="qcurve" smooth="yes"/>
      <point x="409" y="452" type="line" smooth="yes"/>
      <point x="409" y="547"/>
      <point x="348" y="634"/>
      <point x="282" y="634" type="qcurve" smooth="yes"/>
      <point x="216" y="634"/>
      <point x="156" y="547"/>
      <point x="156" y="452" type="qcurve" smooth="yes"/>
      <point x="156" y="255" type="line" smooth="yes"/>
      <point x="156" y="160"/>
      <point x="216" y="73"/>
      <point x="282" y="73" type="qcurve" smooth="yes"/>
      <point x="349" y="73"/>
    </contour>
  </outline>
</glyph>
<glyph name="two" format="2">
  <advance width="542"/>
  <unicode hex="0032"/>
  <outline>
    <contour>
      <point x="57" y="75" type="line"/>
      <point x="318" y="371" type="line" smooth="yes"/>
      <point x="358" y="414"/>
      <point x="390" y="478"/>
      <point x="390" y="515" type="qcurve" smooth="yes"/>
      <point x="390" y="527" type="line" smooth="yes"/>
      <point x="390" y="578"/>
      <point x="325" y="636"/>
      <point x="266" y="636" type="qcurve" smooth="yes"/>
      <point x="209" y="636"/>
      <point x="146" y="579"/>
      <point x="146" y="523" type="qcurve" smooth="yes"/>
      <point x="146" y="512" type="line"/>
      <point x="56" y="512" type="line"/>
      <point x="56" y="530" type="line" smooth="yes"/>
      <point x="56" y="616"/>
      <point x="171" y="717"/>
      <point x="268" y="717" type="qcurve" smooth="yes"/>
      <point x="334" y="717"/>
      <point x="431" y="670"/>
      <point x="483" y="585"/>
      <point x="483" y="529" type="qcurve" smooth="yes"/>
      <point x="483" y="514" type="line" smooth="yes"/>
      <point x="483" y="462"/>
      <point x="440" y="374"/>
      <point x="390" y="321" type="qcurve" smooth="yes"/>
      <point x="180" y="82" type="line"/>
      <point x="489" y="82" type="line"/>
      <point x="489" y="0" type="line"/>
      <point x="57" y="0" type="line"/>
    </contour>
  </outline>
</glyph>
<glyph name="five" format="2">
  <advance width="548"/>
  <unicode hex="0035"/>
  <outline>
    <contour>
      <point x="62" y="90"/>
      <point x="62" y="169" type="qcurve" smooth="yes"/>
      <point x="62" y="177" type="line"/>
      <point x="152" y="177" type="line"/>
      <point x="152" y="172" type="line" smooth="yes"/>
      <point x="152" y="129"/>
      <point x="213" y="72"/>
      <point x="272" y="72" type="qcurve" smooth="yes"/>
      <point x="396" y="72"/>
      <point x="396" y="210" type="qcurve" smooth="yes"/>
      <point x="396" y="246" type="line" smooth="yes"/>
      <point x="396" y="315"/>
      <point x="335" y="385"/>
      <point x="275" y="385" type="qcurve" smooth="yes"/>
      <point x="235" y="385"/>
      <point x="178" y="349"/>
      <point x="164" y="315" type="qcurve"/>
      <point x="74" y="315" type="line"/>
      <point x="74" y="707" type="line"/>
      <point x="469" y="707" type="line"/>
      <point x="469" y="624" type="line"/>
      <point x="157" y="624" type="line"/>
      <point x="157" y="415" type="line"/>
      <point x="181" y="439"/>
      <point x="252" y="466"/>
      <point x="292" y="466" type="qcurve" smooth="yes"/>
      <point x="385" y="466"/>
      <point x="488" y="353"/>
      <point x="488" y="250" type="qcurve" smooth="yes"/>
      <point x="488" y="206" type="line" smooth="yes"/>
      <point x="488" y="104"/>
      <point x="374" y="-10"/>
      <point x="270" y="-10" type="qcurve" smooth="yes"/>
      <point x="171" y="-10"/>
    </contour>
  </outline>
</glyph>
<glyph name="nine" format="2">
  <advance width="565"/>
  <unicode hex="0039"/>
  <outline>
    <contour>
      <point x="348" y="297" type="line"/>
      <point x="315" y="279"/>
      <point x="259" y="279" type="qcurve" smooth="yes"/>
      <point x="201" y="279"/>
      <point x="109" y="331"/>
      <point x="56" y="423"/>
      <point x="56" y="481" type="qcurve" smooth="yes"/>
      <point x="56" y="506" type="line" smooth="yes"/>
      <point x="56" y="603"/>
      <point x="180" y="717"/>
      <point x="284" y="717" type="qcurve" smooth="yes"/>
      <point x="388" y="717"/>
      <point x="511" y="604"/>
      <point x="511" y="510" type="qcurve" smooth="yes"/>
      <point x="511" y="487" type="line" smooth="yes"/>
      <point x="511" y="437"/>
      <point x="479" y="347"/>
      <point x="442" y="289" type="qcurve" smooth="yes"/>
      <point x="268" y="0" type="line"/>
      <point x="168" y="0" type="line"/>
    </contour>
    <contour>
      <point x="419" y="427"/>
      <point x="419" y="486" type="qcurve" smooth="yes"/>
      <point x="419" y="510" type="line" smooth="yes"/>
      <point x="419" y="568"/>
      <point x="346" y="636"/>
      <point x="284" y="636" type="qcurve" smooth="yes"/>
      <point x="222" y="636"/>
      <point x="148" y="567"/>
      <point x="148" y="509" type="qcurve" smooth="yes"/>
      <point x="148" y="485" type="line" smooth="yes"/>
      <point x="148" y="428"/>
      <point x="222" y="360"/>
      <point x="285" y="360" type="qcurve" smooth="yes"/>
      <point x="347" y="360"/>
    </contour>
  </outline>
</glyph>
<glyph name="semicolon" format="2">
  <advance width="202"/>
  <unicode hex="003B"/>
  <outline>
    <contour>
      <point x="49" y="456" type="line"/>
      <point x="154" y="456" type="line"/>
      <point x="154" y="346" type="line"/>
      <point x="49" y="346" type="line"/>
    </contour>
    <contour>
      <point x="70" y="110" type="line"/>
      <point x="154" y="110" type="line"/>
      <point x="154" y="-74" type="line"/>
      <point x="70" y="-148" type="line"/>
    </contour>
  </outline>
</glyph>
<glyph name="D" format="2">
  <advance width="690"/>
  <unicode hex="0044"/>
  <outline>
    <contour>
      <point x="74" y="707" type="line"/>
      <point x="335" y="707" type="line" smooth="yes"/>
      <point x="476" y="707"/>
      <point x="630" y="553"/>
      <point x="630" y="400" type="qcurve" smooth="yes"/>
      <point x="630" y="307" type="line" smooth="yes"/>
      <point x="630" y="154"/>
      <point x="475" y="0"/>
      <point x="333" y="0" type="qcurve" smooth="yes"/>
      <point x="74" y="0" type="line"/>
    </contour>
    <contour>
      <point x="335" y="83" type="line" smooth="yes"/>
      <point x="437" y="83"/>
      <point x="537" y="191"/>
      <point x="537" y="305" type="qcurve" smooth="yes"/>
      <point x="537" y="395" type="line" smooth="yes"/>
      <point x="537" y="512"/>
      <point x="437" y="624"/>
      <point x="335" y="624" type="qcurve" smooth="yes"/>
      <point x="167" y="624" type="line"/>
      <point x="167" y="83" type="line"/>
    </contour>
  </outline>
</glyph>
<glyph name="G" format="2">
  <advance width="696"/>
  <unicode hex="0047"/>
  <outline>
    <contour>
      <point x="62" y="147"/>
      <point x="62" y="302" type="qcurve" smooth="yes"/>
      <point x="62" y="406" type="line" smooth="yes"/>
      <point x="62" y="561"/>
      <point x="217" y="717"/>
      <point x="359" y="717" type="qcurve" smooth="yes"/>
      <point x="486" y="717"/>
      <point x="635" y="596"/>
      <point x="635" y="493" type="qcurve" smooth="yes"/>
      <point x="635" y="487" type="line"/>
      <point x="543" y="487" type="line"/>
      <point x="543" y="492" type="line" smooth="yes"/>
      <point x="543" y="558"/>
      <point x="446" y="633"/>
      <point x="359" y="633" type="qcurve" smooth="yes"/>
      <point x="256" y="633"/>
      <point x="156" y="520"/>
      <point x="156" y="400" type="qcurve" smooth="yes"/>
      <point x="156" y="301" type="line" smooth="yes"/>
      <point x="156" y="185"/>
      <point x="257" y="75"/>
      <point x="360" y="75" type="qcurve" smooth="yes"/>
      <point x="543" y="75"/>
      <point x="544" y="248" type="qcurve" smooth="yes"/>
      <point x="544" y="290" type="line"/>
      <point x="348" y="290" type="line"/>
      <point x="348" y="369" type="line"/>
      <point x="636" y="369" type="line"/>
      <point x="636" y="254" type="line" smooth="yes"/>
      <point x="636" y="125"/>
      <point x="488" y="-9"/>
      <point x="359" y="-9" type="qcurve" smooth="yes"/>
      <point x="217" y="-9"/>
    </contour>
  </outline>
</glyph>
<glyph name="O" format="2">
  <advance width="711"/>
  <unicode hex="004F"/>
  <outline>
    <contour>
      <point x="62" y="147"/>
      <point x="62" y="302" type="qcurve" smooth="yes"/>
      <point x="62" y="406" type="line" smooth="yes"/>
      <point x="62" y="561"/>
      <point x="217" y="717"/>
      <point x="358" y="717" type="qcurve" smooth="yes"/>
      <point x="498" y="717"/>
      <point x="651" y="560"/>
      <point x="651" y="406" type="qcurve" smooth="yes"/>
      <point x="651" y="302" type="line" smooth="yes"/>
      <point x="651" y="147"/>
      <point x="497" y="-9"/>
      <point x="355" y="-9" type="qcurve" smooth="yes"/>
      <point x="215" y="-9"/>
    </contour>
    <contour>
      <point x="559" y="185"/>
      <point x="559" y="301" type="qcurve" smooth="yes"/>
      <point x="559" y="400" type="line" smooth="yes"/>
      <point x="559" y="520"/>
      <point x="459" y="633"/>
      <point x="357" y="633" type="qcurve" smooth="yes"/>
      <point x="255" y="633"/>
      <point x="156" y="520"/>
      <point x="156" y="400" type="qcurve" smooth="yes"/>
      <point x="156" y="301" type="line" smooth="yes"/>
      <point x="156" y="185"/>
      <point x="255" y="75"/>
      <point x="357" y="75" type="qcurve" smooth="yes"/>
      <point x="459" y="75"/>
    </contour>
  </outline>
</glyph>
<glyph name="Q" format="2">
  <advance width="711"/>
  <unicode hex="0051"/>
  <outline>
    <contour>
      <point x="536" y="38" type="qcurve"/>
      <point x="617" y="-116" type="line"/>
      <point x="545" y="-155" type="line"/>
      <point x="460" y="4" type="line"/>
      <point x="414" y="-9"/>
      <point x="355" y="-9" type="qcurve" smooth="yes"/>
      <point x="215" y="-9"/>
      <point x="62" y="147"/>
      <point x="62" y="302" type="qcurve" smooth="yes"/>
      <point x="62" y="406" type="line" smooth="yes"/>
      <point x="62" y="561"/>
      <point x="217" y="717"/>
      <point x="358" y="717" type="qcurve" smooth="yes"/>
      <point x="498" y="717"/>
      <point x="651" y="560"/>
      <point x="651" y="406" type="qcurve" smooth="yes"/>
      <point x="651" y="302" type="line" smooth="yes"/>
      <point x="652" y="114"/>
    </contour>
    <contour>
      <point x="559" y="400" type="line" smooth="yes"/>
      <point x="559" y="520"/>
      <point x="459" y="633"/>
      <point x="357" y="633" type="qcurve" smooth="yes"/>
      <point x="255" y="633"/>
      <point x="156" y="520"/>
      <point x="156" y="400" type="qcurve" smooth="yes"/>
      <point x="156" y="301" type="line" smooth="yes"/>
      <point x="156" y="185"/>
      <point x="255" y="75"/>
      <point x="357" y="75" type="qcurve" smooth="yes"/>
      <point x="458" y="75"/>
      <point x="559" y="185"/>
      <point x="559" y="301" type="qcurve" smooth="yes"/>
    </contour>
  </outline>
</glyph>
<glyph name="U" format="2">
  <advance width="708"/>
  <unicode hex="0055"/>
  <outline>
    <contour>
      <point x="74" y="130"/>
      <point x="74" y="253" type="qcurve" smooth="yes"/>
      <point x="74" y="707" type="line"/>
      <point x="167" y="707" type="line"/>
      <point x="167" y="259" type="line" smooth="yes"/>
      <point x="167" y="76"/>
      <point x="354" y="76" type="qcurve" smooth="yes"/>
      <point x="541" y="76"/>
      <point x="542" y="259" type="qcurve" smooth="yes"/>
      <point x="542" y="707" type="line"/>
      <point x="635" y="707" type="line"/>
      <point x="635" y="253" type="line" smooth="yes"/>
      <point x="635" y="130"/>
      <point x="486" y="-6"/>
      <point x="354" y="-6" type="qcurve" smooth="yes"/>
      <point x="222" y="-6"/>
    </contour>
  </outline>
</glyph>
<glyph name="asciicircum" format="2">
  <advance width="521"/>
  <unicode hex="005E"/>
  <outline>
    <contour>
      <point x="223" y="709" type="line"/>
      <point x="298" y="709" type="line"/>
      <point x="471" y="288" type="line"/>
      <point x="396" y="288" type="line"/>
      <point x="260" y="624" type="line"/>
      <point x="125" y="288" type="line"/>
      <point x="50" y="288" type="line"/>
    </contour>
  </outline>
</glyph>
<glyph name="a" format="2">
  <advance width="562"/>
  <unicode hex="0061"/>
  <outline>
    <contour>
      <point x="494" y="434"/>
      <point x="494" y="342" type="qcurve" smooth="yes"/>
      <point x="494" y="0" type="line"/>
      <point x="409" y="0" type="line"/>
      <point x="409" y="59" type="line"/>
      <point x="355" y="-7"/>
      <point x="238" y="-6" type="qcurve" smooth="yes"/>
      <point x="143" y="-6"/>
      <point x="43" y="75"/>
      <point x="43" y="152" type="qcurve" smooth="yes"/>
      <point x="43" y="226"/>
      <point x="145" y="304"/>
      <point x="244" y="304" type="qcurve" smooth="yes"/>
      <point x="407" y="304" type="line"/>
      <point x="407" y="340" type="line" smooth="yes"/>
      <point x="407" y="459"/>
      <point x="268" y="459" type="qcurve" smooth="yes"/>
      <point x="208" y="459"/>
      <point x="145" y="414"/>
      <point x="145" y="373" type="qcurve" smooth="yes"/>
      <point x="145" y="370" type="line"/>
      <point x="60" y="370" type="line"/>
      <point x="60" y="373" type="line" smooth="yes"/>
      <point x="60" y="447"/>
      <point x="171" y="531"/>
      <point x="267" y="531" type="qcurve" smooth="yes"/>
      <point x="377" y="531"/>
    </contour>
    <contour>
      <point x="407" y="130"/>
      <point x="407" y="198" type="qcurve" smooth="yes"/>
      <point x="407" y="239" type="line"/>
      <point x="258" y="239" type="line" smooth="yes"/>
      <point x="191" y="239"/>
      <point x="129" y="197"/>
      <point x="129" y="153" type="qcurve" smooth="yes"/>
      <point x="129" y="108"/>
      <point x="190" y="65"/>
      <point x="255" y="65" type="qcurve" smooth="yes"/>
      <point x="333" y="65"/>
    </contour>
  </outline>
</glyph>
<glyph name="d" format="2">
  <advance width="593"/>
  <unicode hex="0064"/>
  <outline>
    <contour>
      <point x="53" y="117"/>
      <point x="53" y="234" type="qcurve" smooth="yes"/>
      <point x="53" y="291" type="line" smooth="yes"/>
      <point x="53" y="408"/>
      <point x="171" y="535"/>
      <point x="268" y="535" type="qcurve" smooth="yes"/>
      <point x="323" y="535"/>
      <point x="413" y="492"/>
      <point x="438" y="455" type="qcurve"/>
      <point x="438" y="707" type="line"/>
      <point x="524" y="707" type="line"/>
      <point x="524" y="0" type="line"/>
      <point x="438" y="0" type="line"/>
      <point x="438" y="69" type="line"/>
      <point x="412" y="31"/>
      <point x="327" y="-9"/>
      <point x="270" y="-9" type="qcurve" smooth="yes"/>
      <point x="170" y="-9"/>
    </contour>
    <contour>
      <point x="438" y="154"/>
      <point x="438" y="227" type="qcurve" smooth="yes"/>
      <point x="438" y="296" type="line" smooth="yes"/>
      <point x="438" y="371"/>
      <point x="357" y="457"/>
      <point x="286" y="457" type="qcurve" smooth="yes"/>
      <point x="216" y="457"/>
      <point x="140" y="372"/>
      <point x="140" y="286" type="qcurve" smooth="yes"/>
      <point x="140" y="239" type="line" smooth="yes"/>
      <point x="140" y="153"/>
      <point x="217" y="68"/>
      <point x="287" y="68" type="qcurve" smooth="yes"/>
      <point x="358" y="68"/>
    </contour>
  </outline>
</glyph>
<glyph name="f" format="2">
  <advance width="372"/>
  <unicode hex="0066"/>
  <outline>
    <contour>
      <point x="207" y="604"/>
      <point x="207" y="564" type="qcurve" smooth="yes"/>
      <point x="207" y="524" type="line"/>
      <point x="338" y="524" type="line"/>
      <point x="338" y="459" type="line"/>
      <point x="207" y="459" type="line"/>
      <point x="207" y="0" type="line"/>
      <point x="120" y="0" type="line"/>
      <point x="120" y="459" type="line"/>
      <point x="46" y="459" type="line"/>
      <point x="46" y="524" type="line"/>
      <point x="120" y="524" type="line"/>
      <point x="120" y="561" type="line" smooth="yes"/>
      <point x="120" y="632"/>
      <point x="200" y="707"/>
      <point x="275" y="707" type="qcurve" smooth="yes"/>
      <point x="338" y="707" type="line"/>
      <point x="338" y="642" type="line"/>
      <point x="290" y="642" type="line" smooth="yes"/>
      <point x="247" y="642"/>
    </contour>
  </outline>
</glyph>
<glyph name="j" format="2">
  <advance width="237"/>
  <unicode hex="006A"/>
  <outline>
    <contour>
      <point x="73" y="707" type="line"/>
      <point x="161" y="707" type="line"/>
      <point x="161" y="611" type="line"/>
      <point x="73" y="611" type="line"/>
    </contour>
    <contour>
      <point x="-55" y="-79" type="line"/>
      <point x="-9" y="-79" type="line" smooth="yes"/>
      <point x="36" y="-79"/>
      <point x="75" y="-40"/>
      <point x="75" y="6" type="qcurve" smooth="yes"/>
      <point x="75" y="524" type="line"/>
      <point x="162" y="524" type="line"/>
      <point x="162" y="0" type="line" smooth="yes"/>
      <point x="162" y="-78"/>
      <point x="81" y="-157"/>
      <point x="1" y="-157" type="qcurve" smooth="yes"/>
      <point x="-55" y="-157" type="line"/>
    </contour>
  </outline>
</glyph>
<glyph name="n" format="2">
  <advance width="585"/>
  <unicode hex="006E"/>
  <outline>
    <contour>
      <point x="69" y="524" type="line"/>
      <point x="155" y="524" type="line"/>
      <point x="155" y="454" type="line"/>
      <point x="183" y="492"/>
      <point x="268" y="530"/>
      <point x="322" y="530" type="qcurve" smooth="yes"/>
      <point x="415" y="530"/>
      <point x="517" y="424"/>
      <point x="517" y="330" type="qcurve" smooth="yes"/>
      <point x="517" y="0" type="line"/>
      <point x="430" y="0" type="line"/>
      <point x="430" y="318" type="line" smooth="yes"/>
      <point x="430" y="385"/>
      <point x="364" y="453"/>
      <point x="300" y="453" type="qcurve" smooth="yes"/>
      <point x="234" y="453"/>
      <point x="156" y="375"/>
      <point x="156" y="307" type="qcurve" smooth="yes"/>
      <point x="156" y="0" type="line"/>
      <point x="69" y="0" type="line"/>
    </contour>
  </outline>
</glyph>
<glyph name="r" format="2">
  <advance width="387"/>
  <unicode hex="0072"/>
  <outline>
    <contour>
      <point x="69" y="524" type="line"/>
      <point x="155" y="524" type="line"/>
      <point x="155" y="451" type="line"/>
      <point x="182" y="492"/>
      <point x="267" y="531"/>
      <point x="322" y="531" type="qcurve" smooth="yes"/>
      <point x="345" y="531"/>
      <point x="364" y="528" type="qcurve"/>
      <point x="364" y="445" type="line"/>
      <point x="336" y="453"/>
      <point x="306" y="454" type="qcurve" smooth="yes"/>
      <point x="238" y="454"/>
      <point x="156" y="372"/>
      <point x="156" y="302" type="qcurve" smooth="yes"/>
      <point x="156" y="0" type="line"/>
      <point x="69" y="0" type="line"/>
    </contour>
  </outline>
</glyph>
<glyph name="t" format="2">
  <advance width="392"/>
  <unicode hex="0074"/>
  <outline>
    <contour>
      <point x="211" y="459" type="line"/>
      <point x="211" y="156" type="line" smooth="yes"/>
      <point x="211" y="113"/>
      <point x="250" y="76"/>
      <point x="295" y="76" type="qcurve" smooth="yes"/>
      <point x="339" y="76" type="line"/>
      <point x="339" y="0" type="line"/>
      <point x="281" y="0" type="line" smooth="yes"/>
      <point x="124" y="0"/>
      <point x="124" y="151" type="qcurve" smooth="yes"/>
      <point x="124" y="459" type="line"/>
      <point x="32" y="459" type="line"/>
      <point x="32" y="524" type="line"/>
      <point x="124" y="524" type="line"/>
      <point x="124" y="638" type="line"/>
      <point x="211" y="674" type="line"/>
      <point x="211" y="524" type="line"/>
      <point x="350" y="524" type="line"/>
      <point x="350" y="459" type="line"/>
    </contour>
  </outline>
</glyph>
<glyph name="y" format="2">
  <advance width="525"/>
  <unicode hex="0079"/>
  <outline>
    <contour>
      <point x="512" y="524" type="line"/>
      <point x="286" y="-52" type="line" smooth="yes"/>
      <point x="264" y="-107"/>
      <point x="182" y="-157"/>
      <point x="116" y="-157" type="qcurve" smooth="yes"/>
      <point x="79" y="-157" type="line"/>
      <point x="79" y="-78" type="line"/>
      <point x="116" y="-78" type="line" smooth="yes"/>
      <point x="162" y="-78"/>
      <point x="207" y="-51"/>
      <point x="219" y="-17" type="qcurve" smooth="yes"/>
      <point x="225" y="0" type="line"/>
      <point x="13" y="524" type="line"/>
      <point x="106" y="524" type="line"/>
      <point x="267" y="112" type="line"/>
      <point x="421" y="524" type="line"/>
    </contour>
  </outline>
</glyph>
<glyph name="z" format="2">
  <advance width="512"/>
  <unicode hex="007A"/>
  <outline>
    <contour>
      <point x="459" y="446" type="line"/>
      <point x="154" y="77" type="line"/>
      <point x="459" y="77" type="line"/>
      <point x="459" y="0" type="line"/>
      <point x="53" y="0" type="line"/>
      <point x="53" y="77" type="line"/>
      <point x="356" y="446" type="line"/>
      <point x="53" y="446" type="line"/>
      <point x="53" y="524" type="line"/>
      <point x="459" y="524" type="line"/>
    </contour>
  </outline>
</glyph>
<glyph name="braceleft" format="2">
  <advance width="386"/>
  <unicode hex="007B"/>
  <outline>
    <contour>
      <point x="143" y="32" type="qcurve" smooth="yes"/>
      <point x="143" y="216" type="line" smooth="yes"/>
      <point x="143" y="261"/>
      <point x="104" y="298"/>
      <point x="53" y="299" type="qcurve"/>
      <point x="53" y="378" type="line"/>
      <point x="104" y="379"/>
      <point x="143" y="416"/>
      <point x="143" y="460" type="qcurve" smooth="yes"/>
      <point x="143" y="640" type="line" smooth="yes"/>
      <point x="143" y="758"/>
      <point x="258" y="758" type="qcurve" smooth="yes"/>
      <point x="333" y="758" type="line"/>
      <point x="333" y="683" type="line"/>
      <point x="282" y="683" type="line" smooth="yes"/>
      <point x="255" y="683"/>
      <point x="231" y="658"/>
      <point x="231" y="631" type="qcurve" smooth="yes"/>
      <point x="231" y="463" type="line" smooth="yes"/>
      <point x="231" y="406"/>
      <point x="203" y="351"/>
      <point x="167" y="338" type="qcurve"/>
      <point x="203" y="325"/>
      <point x="231" y="271"/>
      <point x="231" y="214" type="qcurve" smooth="yes"/>
      <point x="231" y="41" type="line" smooth="yes"/>
      <point x="231" y="13"/>
      <point x="255" y="-11"/>
      <point x="282" y="-11" type="qcurve" smooth="yes"/>
      <point x="333" y="-11" type="line"/>
      <point x="333" y="-86" type="line"/>
      <point x="258" y="-86" type="line" smooth="yes"/>
      <point x="143" y="-86"/>
    </contour>
  </outline>
</glyph>
<glyph name="asciitilde" format="2">
  <advance width="521"/>
  <unicode hex="007E"/>
  <outline>
    <contour>
      <point x="44" y="251" type="line"/>
      <point x="67" y="300"/>
      <point x="135" y="350"/>
      <point x="177" y="350" type="qcurve" smooth="yes"/>
      <point x="204" y="350"/>
      <point x="247" y="332"/>
      <point x="272" y="315" type="qcurve" smooth="yes"/>
      <point x="298" y="301"/>
      <point x="326" y="289"/>
      <point x="341" y="289" type="qcurve" smooth="yes"/>
      <point x="365" y="289"/>
      <point x="398" y="315"/>
      <point x="417" y="349" type="qcurve"/>
      <point x="476" y="312" type="line"/>
      <point x="453" y="263"/>
      <point x="384" y="212"/>
      <point x="342" y="212" type="qcurve" smooth="yes"/>
      <point x="316" y="212"/>
      <point x="274" y="229"/>
      <point x="247" y="247" type="qcurve" smooth="yes"/>
      <point x="225" y="261"/>
      <point x="195" y="274"/>
      <point x="179" y="274" type="qcurve" smooth="yes"/>
      <point x="155" y="274"/>
      <point x="123" y="249"/>
      <point x="104" y="215" type="qcurve"/>
    </contour>
  </outline>
</glyph>
<glyph name="exclamdown" format="2">
  <advance width="244"/>
  <unicode hex="00A1"/>
  <outline>
    <contour>
      <point x="71" y="524" type="line"/>
      <point x="175" y="524" type="line"/>
      <point x="175" y="416" type="line"/>
      <point x="71" y="416" type="line"/>
    </contour>
    <contour>
      <point x="89" y="313" type="line"/>
      <point x="157" y="313" type="line"/>
      <point x="174" y="-157" type="line"/>
      <point x="71" y="-157" type="line"/>
    </contour>
  </outline>
</glyph>
<glyph name="cent" format="2">
  <advance width="566"/>
  <unicode hex="00A2"/>
  <outline>
    <contour>
      <point x="428" y="339" type="line"/>
      <point x="428" y="344" type="line" smooth="yes"/>
      <point x="428" y="391"/>
      <point x="374" y="449"/>
      <point x="324" y="455" type="qcurve"/>
      <point x="324" y="70" type="line"/>
      <point x="374" y="76"/>
      <point x="428" y="133"/>
      <point x="428" y="179" type="qcurve" smooth="yes"/>
      <point x="428" y="183" type="line"/>
      <point x="513" y="183" type="line"/>
      <point x="513" y="179" type="line" smooth="yes"/>
      <point x="513" y="98"/>
      <point x="414" y="-1"/>
      <point x="324" y="-8" type="qcurve"/>
      <point x="324" y="-102" type="line"/>
      <point x="261" y="-102" type="line"/>
      <point x="261" y="-8" type="line"/>
      <point x="163" y="1"/>
      <point x="53" y="126"/>
      <point x="53" y="237" type="qcurve" smooth="yes"/>
      <point x="53" y="289" type="line" smooth="yes"/>
      <point x="53" y="400"/>
      <point x="163" y="524"/>
      <point x="261" y="534" type="qcurve"/>
      <point x="261" y="626" type="line"/>
      <point x="324" y="626" type="line"/>
      <point x="324" y="534" type="line"/>
      <point x="414" y="527"/>
      <point x="513" y="426"/>
      <point x="513" y="344" type="qcurve" smooth="yes"/>
      <point x="513" y="339" type="line"/>
    </contour>
    <contour>
      <point x="261" y="70" type="qcurve"/>
      <point x="261" y="455" type="line"/>
      <point x="140" y="438"/>
      <point x="140" y="287" type="qcurve" smooth="yes"/>
      <point x="140" y="239" type="line" smooth="yes"/>
      <point x="140" y="87"/>
    </contour>
  </outline>
</glyph>
<glyph name="brokenbar" format="2">
  <advance width="296"/>
  <unicode hex="00A6"/>
  <outline>
    <contour>
      <point x="106" y="742" type="line"/>
      <point x="190" y="742" type="line"/>
      <point x="190" y="382" type="line"/>
      <point x="106" y="382" type="line"/>
    </contour>
    <contour>
      <point x="106" y="292" type="line"/>
      <point x="190" y="292" type="line"/>
      <point x="190" y="-70" type="line"/>
      <point x="106" y="-70" type="line"/>
    </contour>
  </outline>
</glyph>
<glyph name="logicalnot" format="2">
  <advance width="521"/>
  <unicode hex="00AC"/>
  <outline>
    <contour>
      <point x="379" y="267" type="line"/>
      <point x="54" y="267" type="line"/>
      <point x="54" y="346" type="line"/>
      <point x="467" y="346" type="line"/>
      <point x="467" y="132" type="line"/>
      <point x="379" y="132" type="line"/>
    </contour>
  </outline>
</glyph>
<glyph name="registered" format="2">
  <advance width="531"/>
  <unicode hex="00AE"/>
  <outline>
    <contour>
      <point x="123" y="366"/>
      <point x="74" y="455"/>
      <point x="74" y="511" type="qcurve" smooth="yes"/>
      <point x="74" y="566"/>
      <point x="123" y="655"/>
      <point x="211" y="707"/>
      <point x="265" y="707" type="qcurve" smooth="yes"/>
      <point x="320" y="707"/>
      <point x="408" y="655"/>
      <point x="458" y="566"/>
      <point x="458" y="511" type="qcurve" smooth="yes"/>
      <point x="458" y="455"/>
      <point x="409" y="366"/>
      <point x="321" y="314"/>
      <point x="265" y="314" type="qcurve" smooth="yes"/>
      <point x="210" y="314"/>
    </contour>
    <contour>
      <point x="421" y="439"/>
      <point x="421" y="511" type="qcurve" smooth="yes"/>
      <point x="421" y="582"/>
      <point x="333" y="672"/>
      <point x="265" y="672" type="qcurve" smooth="yes"/>
      <point x="196" y="672"/>
      <point x="112" y="582"/>
      <point x="112" y="511" type="qcurve" smooth="yes"/>
      <point x="112" y="439"/>
      <point x="197" y="349"/>
      <point x="265" y="349" type="qcurve" smooth="yes"/>
      <point x="334" y="349"/>
    </contour>
    <contour>
      <point x="193" y="622" type="line"/>
      <point x="276" y="622" type="line" smooth="yes"/>
      <point x="311" y="622"/>
      <point x="349" y="588"/>
      <point x="349" y="556" type="qcurve" smooth="yes"/>
      <point x="349" y="512"/>
      <point x="311" y="496" type="qcurve"/>
      <point x="354" y="402" type="line"/>
      <point x="310" y="402" type="line"/>
      <point x="269" y="490" type="line"/>
      <point x="234" y="490" type="line"/>
      <point x="234" y="402" type="line"/>
      <point x="193" y="402" type="line"/>
    </contour>
    <contour>
      <point x="274" y="526" type="line" smooth="yes"/>
      <point x="308" y="526"/>
      <point x="308" y="556" type="qcurve" smooth="yes"/>
      <point x="308" y="585"/>
      <point x="274" y="585" type="qcurve" smooth="yes"/>
      <point x="234" y="585" type="line"/>
      <point x="234" y="526" type="line"/>
    </contour>
  </outline>
</glyph>
<glyph name="degree" format="2">
  <advance width="410"/>
  <unicode hex="00B0"/>
  <outline>
    <contour>
      <point x="62" y="512"/>
      <point x="62" y="573" type="qcurve" smooth="yes"/>
      <point x="62" y="634"/>
      <point x="144" y="717"/>
      <point x="207" y="717" type="qcurve" smooth="yes"/>
      <point x="267" y="717"/>
      <point x="350" y="635"/>
      <point x="350" y="573" type="qcurve" smooth="yes"/>
      <point x="350" y="533"/>
      <point x="312" y="467"/>
      <point x="247" y="429"/>
      <point x="207" y="429" type="qcurve" smooth="yes"/>
      <point x="144" y="429"/>
    </contour>
    <contour>
      <point x="290" y="537"/>
      <point x="290" y="573" type="qcurve" smooth="yes"/>
      <point x="290" y="611"/>
      <point x="243" y="660"/>
      <point x="207" y="660" type="qcurve" smooth="yes"/>
      <point x="170" y="660"/>
      <point x="123" y="611"/>
      <point x="123" y="573" type="qcurve" smooth="yes"/>
      <point x="123" y="536"/>
      <point x="170" y="487"/>
      <point x="207" y="487" type="qcurve" smooth="yes"/>
      <point x="243" y="487"/>
    </contour>
  </outline>
</glyph>
<glyph name="uni00B5" format="2">
  <advance width="584"/>
  <unicode hex="00B5"/>
  <outline>
    <contour>
      <point x="69" y="524" type="line"/>
      <point x="156" y="524" type="line"/>
      <point x="156" y="204" type="line" smooth="yes"/>
      <point x="156" y="139"/>
      <point x="226" y="71"/>
      <point x="289" y="71" type="qcurve" smooth="yes"/>
      <point x="355" y="71"/>
      <point x="428" y="150"/>
      <point x="428" y="221" type="qcurve" smooth="yes"/>
      <point x="428" y="524" type="line"/>
      <point x="516" y="524" type="line"/>
      <point x="516" y="0" type="line"/>
      <point x="430" y="0" type="line"/>
      <point x="430" y="68" type="line"/>
      <point x="377" y="-6"/>
      <point x="276" y="-6" type="qcurve" smooth="yes"/>
      <point x="196" y="-6"/>
      <point x="156" y="34" type="qcurve"/>
      <point x="156" y="-157" type="line"/>
      <point x="69" y="-157" type="line"/>
    </contour>
  </outline>
</glyph>
<glyph name="paragraph" format="2">
  <advance width="697"/>
  <unicode hex="00B6"/>
  <outline>
    <contour>
      <point x="333" y="275" type="line"/>
      <point x="331" y="275" type="line" smooth="yes"/>
      <point x="207" y="275"/>
      <point x="74" y="388"/>
      <point x="74" y="490" type="qcurve" smooth="yes"/>
      <point x="74" y="593"/>
      <point x="202" y="707"/>
      <point x="316" y="707" type="qcurve" smooth="yes"/>
      <point x="587" y="707" type="line"/>
      <point x="587" y="-157" type="line"/>
      <point x="505" y="-157" type="line"/>
      <point x="505" y="629" type="line"/>
      <point x="415" y="629" type="line"/>
      <point x="415" y="-157" type="line"/>
      <point x="333" y="-157" type="line"/>
    </contour>
  </outline>
</glyph>
<glyph name="uni00B9" format="2">
  <advance width="271"/>
  <unicode hex="00B9"/>
  <outline>
    <contour>
      <point x="127" y="785" type="line"/>
      <point x="40" y="731" type="line"/>
      <point x="40" y="814" type="line"/>
      <point x="127" y="867" type="line"/>
      <point x="207" y="867" type="line"/>
      <point x="207" y="440" type="line"/>
      <point x="127" y="440" type="line"/>
    </contour>
  </outline>
</glyph>
<glyph name="onequarter" format="2">
  <advance width="825"/>
  <unicode hex="00BC"/>
  <outline>
    <contour>
      <point x="602" y="709" type="line"/>
      <point x="212" y="0" type="line"/>
      <point x="137" y="0" type="line"/>
      <point x="526" y="709" type="line"/>
    </contour>
    <contour>
      <point x="117" y="280" type="line"/>
      <point x="117" y="624" type="line"/>
      <point x="29" y="569" type="line"/>
      <point x="29" y="653" type="line"/>
      <point x="117" y="707" type="line"/>
      <point x="197" y="707" type="line"/>
      <point x="197" y="280" type="line"/>
    </contour>
    <contour>
      <point x="788" y="72" type="line"/>
      <point x="746" y="72" type="line"/>
      <point x="746" y="0" type="line"/>
      <point x="667" y="0" type="line"/>
      <point x="667" y="72" type="line"/>
      <point x="469" y="72" type="line"/>
      <point x="469" y="140" type="line"/>
      <point x="611" y="427" type="line"/>
      <point x="691" y="427" type="line"/>
      <point x="550" y="140" type="line"/>
      <point x="667" y="140" type="line"/>
      <point x="667" y="238" type="line"/>
      <point x="746" y="238" type="line"/>
      <point x="746" y="140" type="line"/>
      <point x="788" y="140" type="line"/>
    </contour>
  </outline>
</glyph>
<glyph name="onehalf" format="2">
  <advance width="836"/>
  <unicode hex="00BD"/>
  <outline>
    <contour>
      <point x="521" y="709" type="line"/>
      <point x="597" y="709" type="line"/>
      <point x="207" y="0" type="line"/>
      <point x="132" y="0" type="line"/>
    </contour>
    <contour>
      <point x="117" y="624" type="line"/>
      <point x="29" y="569" type="line"/>
      <point x="29" y="653" type="line"/>
      <point x="117" y="707" type="line"/>
      <point x="197" y="707" type="line"/>
      <point x="197" y="280" type="line"/>
      <point x="117" y="280" type="line"/>
    </contour>
    <contour>
      <point x="505" y="61" type="line"/>
      <point x="668" y="231" type="line" smooth="yes"/>
      <point x="688" y="251"/>
      <point x="707" y="286"/>
      <point x="707" y="305" type="qcurve" smooth="yes"/>
      <point x="707" y="311" type="line" smooth="yes"/>
      <point x="707" y="339"/>
      <point x="675" y="369"/>
      <point x="643" y="369" type="qcurve" smooth="yes"/>
      <point x="611" y="369"/>
      <point x="578" y="339"/>
      <point x="578" y="310" type="qcurve" smooth="yes"/>
      <point x="578" y="303" type="line"/>
      <point x="501" y="303" type="line"/>
      <point x="501" y="312" type="line" smooth="yes"/>
      <point x="501" y="369"/>
      <point x="578" y="434"/>
      <point x="645" y="434" type="qcurve" smooth="yes"/>
      <point x="712" y="434"/>
      <point x="786" y="370"/>
      <point x="786" y="314" type="qcurve" smooth="yes"/>
      <point x="786" y="306" type="line" smooth="yes"/>
      <point x="786" y="272"/>
      <point x="758" y="217"/>
      <point x="725" y="185" type="qcurve" smooth="yes"/>
      <point x="615" y="69" type="line"/>
      <point x="788" y="69" type="line"/>
      <point x="788" y="0" type="line"/>
      <point x="505" y="0" type="line"/>
    </contour>
  </outline>
</glyph>
<glyph name="questiondown" format="2">
  <advance width="496"/>
  <unicode hex="00BF"/>
  <outline>
    <contour>
      <point x="204" y="524" type="line"/>
      <point x="307" y="524" type="line"/>
      <point x="307" y="418" type="line"/>
      <point x="204" y="418" type="line"/>
    </contour>
    <contour>
      <point x="43" y="-75"/>
      <point x="43" y="6" type="qcurve" smooth="yes"/>
      <point x="43" y="49"/>
      <point x="73" y="120"/>
      <point x="106" y="154" type="qcurve" smooth="yes"/>
      <point x="173" y="217" type="line" smooth="yes"/>
      <point x="196" y="239"/>
      <point x="211" y="276"/>
      <point x="211" y="308" type="qcurve" smooth="yes"/>
      <point x="211" y="338" type="line"/>
      <point x="301" y="338" type="line"/>
      <point x="301" y="304" type="line" smooth="yes"/>
      <point x="301" y="257"/>
      <point x="279" y="201"/>
      <point x="245" y="169" type="qcurve" smooth="yes"/>
      <point x="187" y="116" type="line" smooth="yes"/>
      <point x="158" y="88"/>
      <point x="135" y="41"/>
      <point x="135" y="10" type="qcurve" smooth="yes"/>
      <point x="135" y="-36"/>
      <point x="197" y="-85"/>
      <point x="255" y="-85" type="qcurve" smooth="yes"/>
      <point x="373" y="-85"/>
      <point x="373" y="24" type="qcurve"/>
      <point x="462" y="24" type="line"/>
      <point x="460" y="-68"/>
      <point x="352" y="-167"/>
      <point x="253" y="-167" type="qcurve" smooth="yes"/>
      <point x="155" y="-167"/>
    </contour>
  </outline>
</glyph>
<glyph name="Aring" format="2">
  <advance width="681"/>
  <unicode hex="00C5"/>
  <outline>
    <contour>
      <point x="513" y="160" type="line"/>
      <point x="167" y="160" type="line"/>
      <point x="103" y="0" type="line"/>
      <point x="6" y="0" type="line"/>
      <point x="300" y="706" type="line"/>
      <point x="274" y="717"/>
      <point x="245" y="763"/>
      <point x="245" y="794" type="qcurve" smooth="yes"/>
      <point x="245" y="836"/>
      <point x="299" y="891"/>
      <point x="341" y="891" type="qcurve" smooth="yes"/>
      <point x="382" y="891"/>
      <point x="437" y="836"/>
      <point x="437" y="794" type="qcurve" smooth="yes"/>
      <point x="437" y="763"/>
      <point x="407" y="717"/>
      <point x="381" y="706" type="qcurve"/>
      <point x="676" y="0" type="line"/>
      <point x="578" y="0" type="line"/>
    </contour>
    <contour>
      <point x="290" y="817"/>
      <point x="290" y="794" type="qcurve" smooth="yes"/>
      <point x="290" y="771"/>
      <point x="318" y="740"/>
      <point x="341" y="740" type="qcurve" smooth="yes"/>
      <point x="364" y="740"/>
      <point x="392" y="771"/>
      <point x="392" y="794" type="qcurve" smooth="yes"/>
      <point x="392" y="818"/>
      <point x="364" y="847"/>
      <point x="341" y="847" type="qcurve" smooth="yes"/>
      <point x="318" y="847"/>
    </contour>
    <contour>
      <point x="481" y="239" type="line"/>
      <point x="340" y="592" type="line"/>
      <point x="199" y="239" type="line"/>
    </contour>
  </outline>
</glyph>
<glyph name="Eth" format="2">
  <advance width="742"/>
  <unicode hex="00D0"/>
  <outline>
    <contour>
      <point x="682" y="553"/>
      <point x="682" y="400" type="qcurve" smooth="yes"/>
      <point x="682" y="307" type="line" smooth="yes"/>
      <point x="682" y="154"/>
      <point x="527" y="0"/>
      <point x="385" y="0" type="qcurve" smooth="yes"/>
      <point x="126" y="0" type="line"/>
      <point x="126" y="317" type="line"/>
      <point x="35" y="317" type="line"/>
      <point x="35" y="400" type="line"/>
      <point x="126" y="400" type="line"/>
      <point x="126" y="707" type="line"/>
      <point x="387" y="707" type="line" smooth="yes"/>
      <point x="528" y="707"/>
    </contour>
    <contour>
      <point x="589" y="395" type="line" smooth="yes"/>
      <point x="589" y="512"/>
      <point x="489" y="624"/>
      <point x="387" y="624" type="qcurve" smooth="yes"/>
      <point x="219" y="624" type="line"/>
      <point x="219" y="400" type="line"/>
      <point x="393" y="400" type="line"/>
      <point x="393" y="317" type="line"/>
      <point x="219" y="317" type="line"/>
      <point x="219" y="83" type="line"/>
      <point x="387" y="83" type="line" smooth="yes"/>
      <point x="489" y="83"/>
      <point x="589" y="191"/>
      <point x="589" y="305" type="qcurve" smooth="yes"/>
    </contour>
  </outline>
</glyph>
<glyph name="Oslash" format="2">
  <advance width="711"/>
  <unicode hex="00D8"/>
  <outline>
    <contour>
      <point x="651" y="406" type="qcurve" smooth="yes"/>
      <point x="651" y="302" type="line" smooth="yes"/>
      <point x="651" y="147"/>
      <point x="497" y="-9"/>
      <point x="355" y="-9" type="qcurve" smooth="yes"/>
      <point x="252" y="-9"/>
      <point x="182" y="34" type="qcurve"/>
      <point x="146" y="-20" type="line"/>
      <point x="73" y="-20" type="line"/>
      <point x="134" y="74" type="line"/>
      <point x="62" y="154"/>
      <point x="62" y="302" type="qcurve" smooth="yes"/>
      <point x="62" y="406" type="line" smooth="yes"/>
      <point x="62" y="561"/>
      <point x="217" y="717"/>
      <point x="358" y="717" type="qcurve" smooth="yes"/>
      <point x="462" y="717"/>
      <point x="531" y="674" type="qcurve"/>
      <point x="567" y="729" type="line"/>
      <point x="640" y="729" type="line"/>
      <point x="579" y="635" type="line"/>
      <point x="651" y="557"/>
    </contour>
    <contour>
      <point x="187" y="154" type="qcurve"/>
      <point x="482" y="600" type="line"/>
      <point x="436" y="633"/>
      <point x="357" y="633" type="qcurve" smooth="yes"/>
      <point x="255" y="633"/>
      <point x="156" y="520"/>
      <point x="156" y="400" type="qcurve" smooth="yes"/>
      <point x="156" y="301" type="line" smooth="yes"/>
      <point x="155" y="207"/>
    </contour>
    <contour>
      <point x="559" y="400" type="line" smooth="yes"/>
      <point x="559" y="498"/>
      <point x="525" y="554" type="qcurve"/>
      <point x="230" y="108" type="line"/>
      <point x="276" y="75"/>
      <point x="357" y="75" type="qcurve" smooth="yes"/>
      <point x="458" y="75"/>
      <point x="559" y="185"/>
      <point x="559" y="301" type="qcurve" smooth="yes"/>
    </contour>
  </outline>
</glyph>
<glyph name="germandbls" format="2">
  <advance width="573"/>
  <unicode hex="00DF"/>
  <outline>
    <contour>
      <point x="284" y="73" type="line"/>
      <point x="315" y="73" type="line" smooth="yes"/>
      <point x="363" y="73"/>
      <point x="414" y="102"/>
      <point x="433" y="169"/>
      <point x="433" y="230" type="qcurve" smooth="yes"/>
      <point x="433" y="292"/>
      <point x="413" y="360"/>
      <point x="359" y="391"/>
      <point x="308" y="391" type="qcurve" smooth="yes"/>
      <point x="283" y="391" type="line"/>
      <point x="283" y="468" type="line"/>
      <point x="314" y="468" type="line" smooth="yes"/>
      <point x="372" y="468"/>
      <point x="424" y="508"/>
      <point x="424" y="551" type="qcurve" smooth="yes"/>
      <point x="424" y="596"/>
      <point x="362" y="637"/>
      <point x="297" y="637" type="qcurve" smooth="yes"/>
      <point x="222" y="637"/>
      <point x="156" y="581"/>
      <point x="156" y="514" type="qcurve" smooth="yes"/>
      <point x="156" y="0" type="line"/>
      <point x="69" y="0" type="line"/>
      <point x="69" y="505" type="line" smooth="yes"/>
      <point x="69" y="610"/>
      <point x="177" y="715"/>
      <point x="294" y="715" type="qcurve" smooth="yes"/>
      <point x="398" y="715"/>
      <point x="511" y="632"/>
      <point x="511" y="554" type="qcurve" smooth="yes"/>
      <point x="511" y="509"/>
      <point x="474" y="451"/>
      <point x="436" y="433" type="qcurve"/>
      <point x="484" y="414"/>
      <point x="520" y="326"/>
      <point x="520" y="233" type="qcurve" smooth="yes"/>
      <point x="520" y="143"/>
      <point x="484" y="42"/>
      <point x="398" y="-4"/>
      <point x="321" y="-4" type="qcurve" smooth="yes"/>
      <point x="284" y="-4" type="line"/>
    </contour>
  </outline>
</glyph>
<glyph name="eth" format="2">
  <advance width="561"/>
  <unicode hex="00F0"/>
  <outline>
    <contour>
      <point x="508" y="318"/>
      <point x="508" y="255" type="qcurve" smooth="yes"/>
      <point x="508" y="225" type="line" smooth="yes"/>
      <point x="508" y="112"/>
      <point x="387" y="-11"/>
      <point x="280" y="-11" type="qcurve" smooth="yes"/>
      <point x="174" y="-11"/>
      <point x="53" y="112"/>
      <point x="53" y="223" type="qcurve" smooth="yes"/>
      <point x="53" y="253" type="line" smooth="yes"/>
      <point x="53" y="361"/>
      <point x="167" y="483"/>
      <point x="266" y="483" type="qcurve" smooth="yes"/>
      <point x="305" y="483"/>
      <point x="333" y="471" type="qcurve"/>
      <point x="259" y="562" type="line"/>
      <point x="137" y="529" type="line"/>
      <point x="120" y="593" type="line"/>
      <point x="213" y="617" type="line"/>
      <point x="139" y="709" type="line"/>
      <point x="240" y="709" type="line"/>
      <point x="296" y="639" type="line"/>
      <point x="423" y="673" type="line"/>
      <point x="440" y="610" type="line"/>
      <point x="341" y="584" type="line"/>
      <point x="417" y="490" type="line" smooth="yes"/>
      <point x="467" y="427"/>
    </contour>
    <contour>
      <point x="422" y="253" type="line" smooth="yes"/>
      <point x="422" y="329"/>
      <point x="350" y="408"/>
      <point x="281" y="408" type="qcurve" smooth="yes"/>
      <point x="211" y="408"/>
      <point x="138" y="329"/>
      <point x="138" y="254" type="qcurve" smooth="yes"/>
      <point x="138" y="224" type="line" smooth="yes"/>
      <point x="138" y="147"/>
      <point x="211" y="68"/>
      <point x="281" y="68" type="qcurve" smooth="yes"/>
      <point x="351" y="68"/>
      <point x="422" y="147"/>
      <point x="422" y="224" type="qcurve" smooth="yes"/>
    </contour>
  </outline>
</glyph>
<glyph name="oslash" format="2">
  <advance width="585"/>
  <unicode hex="00F8"/>
  <outline>
    <contour>
      <point x="532" y="289" type="qcurve" smooth="yes"/>
      <point x="532" y="237" type="line" smooth="yes"/>
      <point x="532" y="117"/>
      <point x="406" y="-9"/>
      <point x="294" y="-9" type="qcurve" smooth="yes"/>
      <point x="218" y="-9"/>
      <point x="162" y="20" type="qcurve"/>
      <point x="127" y="-31" type="line"/>
      <point x="61" y="-31" type="line"/>
      <point x="119" y="52" type="line"/>
      <point x="53" y="115"/>
      <point x="53" y="237" type="qcurve" smooth="yes"/>
      <point x="53" y="289" type="line" smooth="yes"/>
      <point x="53" y="409"/>
      <point x="181" y="535"/>
      <point x="294" y="535" type="qcurve" smooth="yes"/>
      <point x="372" y="535"/>
      <point x="426" y="504" type="qcurve"/>
      <point x="459" y="551" type="line"/>
      <point x="524" y="551" type="line"/>
      <point x="469" y="471" type="line"/>
      <point x="532" y="406"/>
    </contour>
    <contour>
      <point x="168" y="125" type="qcurve"/>
      <point x="380" y="436" type="line"/>
      <point x="344" y="456"/>
      <point x="293" y="457" type="qcurve" smooth="yes"/>
      <point x="140" y="457"/>
      <point x="140" y="287" type="qcurve" smooth="yes"/>
      <point x="140" y="239" type="line" smooth="yes"/>
      <point x="140" y="167"/>
    </contour>
    <contour>
      <point x="445" y="287" type="line" smooth="yes"/>
      <point x="445" y="356"/>
      <point x="420" y="397" type="qcurve"/>
      <point x="208" y="87" type="line"/>
      <point x="241" y="68"/>
      <point x="293" y="68" type="qcurve" smooth="yes"/>
      <point x="446" y="68"/>
      <point x="445" y="239" type="qcurve" smooth="yes"/>
    </contour>
  </outline>
</glyph>
<glyph name="thorn" format="2">
  <advance width="593"/>
  <unicode hex="00FE"/>
  <outline>
    <contour>
      <point x="69" y="707" type="line"/>
      <point x="156" y="707" type="line"/>
      <point x="156" y="454" type="line"/>
      <point x="182" y="492"/>
      <point x="267" y="535"/>
      <point x="322" y="535" type="qcurve" smooth="yes"/>
      <point x="421" y="535"/>
      <point x="541" y="408"/>
      <point x="541" y="291" type="qcurve" smooth="yes"/>
      <point x="541" y="236" type="line" smooth="yes"/>
      <point x="541" y="118"/>
      <point x="421" y="-9"/>
      <point x="322" y="-9" type="qcurve" smooth="yes"/>
      <point x="266" y="-9"/>
      <point x="181" y="30"/>
      <point x="155" y="68" type="qcurve"/>
      <point x="155" y="-157" type="line"/>
      <point x="69" y="-157" type="line"/>
    </contour>
    <contour>
      <point x="454" y="154"/>
      <point x="454" y="240" type="qcurve" smooth="yes"/>
      <point x="454" y="287" type="line" smooth="yes"/>
      <point x="454" y="373"/>
      <point x="378" y="457"/>
      <point x="307" y="457" type="qcurve" smooth="yes"/>
      <point x="236" y="457"/>
      <point x="156" y="370"/>
      <point x="156" y="296" type="qcurve" smooth="yes"/>
      <point x="156" y="227" type="line" smooth="yes"/>
      <point x="156" y="154"/>
      <point x="238" y="68"/>
      <point x="309" y="68" type="qcurve" smooth="yes"/>
      <point x="378" y="68"/>
    </contour>
  </outline>
</glyph>
<glyph name="OE" format="2">
  <advance width="1085"/>
  <unicode hex="0152"/>
  <outline>
    <contour>
      <point x="651" y="624" type="line"/>
      <point x="651" y="400" type="line"/>
      <point x="984" y="400" type="line"/>
      <point x="984" y="317" type="line"/>
      <point x="651" y="317" type="line"/>
      <point x="651" y="83" type="line"/>
      <point x="1040" y="83" type="line"/>
      <point x="1040" y="0" type="line"/>
      <point x="561" y="0" type="line"/>
      <point x="561" y="61" type="line"/>
      <point x="484" y="-10"/>
      <point x="353" y="-9" type="qcurve" smooth="yes"/>
      <point x="213" y="-9"/>
      <point x="62" y="147"/>
      <point x="62" y="302" type="qcurve" smooth="yes"/>
      <point x="62" y="406" type="line" smooth="yes"/>
      <point x="62" y="561"/>
      <point x="215" y="717"/>
      <point x="355" y="717" type="qcurve" smooth="yes"/>
      <point x="485" y="717"/>
      <point x="561" y="647" type="qcurve"/>
      <point x="561" y="707" type="line"/>
      <point x="1040" y="707" type="line"/>
      <point x="1040" y="624" type="line"/>
    </contour>
    <contour>
      <point x="559" y="400" type="line" smooth="yes"/>
      <point x="559" y="520"/>
      <point x="459" y="633"/>
      <point x="357" y="633" type="qcurve" smooth="yes"/>
      <point x="255" y="633"/>
      <point x="156" y="520"/>
      <point x="156" y="400" type="qcurve" smooth="yes"/>
      <point x="156" y="301" type="line" smooth="yes"/>
      <point x="156" y="185"/>
      <point x="255" y="75"/>
      <point x="357" y="75" type="qcurve" smooth="yes"/>
      <point x="458" y="75"/>
      <point x="559" y="185"/>
      <point x="559" y="301" type="qcurve" smooth="yes"/>
    </contour>
  </outline>
</glyph>
<glyph name="florin" format="2">
  <advance width="479"/>
  <unicode hex="0192"/>
  <outline>
    <contour>
      <point x="12" y="-74" type="line"/>
      <point x="58" y="-74" type="line" smooth="yes"/>
      <point x="105" y="-74"/>
      <point x="147" y="-36"/>
      <point x="155" y="17" type="qcurve" smooth="yes"/>
      <point x="203" y="345" type="line"/>
      <point x="97" y="345" type="line"/>
      <point x="97" y="424" type="line"/>
      <point x="215" y="424" type="line"/>
      <point x="232" y="538" type="line" smooth="yes"/>
      <point x="246" y="630"/>
      <point x="328" y="707"/>
      <point x="412" y="707" type="qcurve" smooth="yes"/>
      <point x="468" y="707" type="line"/>
      <point x="468" y="625" type="line"/>
      <point x="416" y="625" type="line" smooth="yes"/>
      <point x="371" y="625"/>
      <point x="329" y="586"/>
      <point x="321" y="535" type="qcurve" smooth="yes"/>
      <point x="304" y="424" type="line"/>
      <point x="431" y="424" type="line"/>
      <point x="431" y="345" type="line"/>
      <point x="292" y="345" type="line"/>
      <point x="243" y="14" type="line" smooth="yes"/>
      <point x="229" y="-80"/>
      <point x="147" y="-157"/>
      <point x="63" y="-157" type="qcurve" smooth="yes"/>
      <point x="12" y="-157" type="line"/>
    </contour>
  </outline>
</glyph>
<glyph name="circumflex" format="2">
  <advance width="512"/>
  <unicode hex="02C6"/>
  <outline>
    <contour>
      <point x="222" y="730" type="line"/>
      <point x="289" y="730" type="line"/>
      <point x="423" y="581" type="line"/>
      <point x="341" y="581" type="line"/>
      <point x="256" y="673" type="line"/>
      <point x="170" y="581" type="line"/>
      <point x="88" y="581" type="line"/>
    </contour>
  </outline>
</glyph>
<glyph name="ring" format="2">
  <advance width="512"/>
  <unicode hex="02DA"/>
  <outline>
    <contour>
      <point x="159" y="633"/>
      <point x="159" y="674" type="qcurve" smooth="yes"/>
      <point x="159" y="716"/>
      <point x="214" y="772"/>
      <point x="256" y="772" type="qcurve" smooth="yes"/>
      <point x="297" y="772"/>
      <point x="352" y="716"/>
      <point x="352" y="674" type="qcurve" smooth="yes"/>
      <point x="352" y="633"/>
      <point x="297" y="578"/>
      <point x="256" y="578" type="qcurve" smooth="yes"/>
      <point x="214" y="578"/>
    </contour>
    <contour>
      <point x="307" y="651"/>
      <point x="307" y="674" type="qcurve" smooth="yes"/>
      <point x="307" y="697"/>
      <point x="278" y="728"/>
      <point x="256" y="728" type="qcurve" smooth="yes"/>
      <point x="233" y="728"/>
      <point x="204" y="697"/>
      <point x="204" y="674" type="qcurve" smooth="yes"/>
      <point x="204" y="651"/>
      <point x="233" y="622"/>
      <point x="256" y="622" type="qcurve" smooth="yes"/>
      <point x="278" y="622"/>
    </contour>
  </outline>
</glyph>
<glyph name="gravecomb" format="2">
  <advance width="0"/>
  <unicode hex="0300"/>
  <outline>
    <contour>
      <point x="-157" y="717" type="line"/>
      <point x="-46" y="717" type="line"/>
      <point x="68" y="586" type="line"/>
      <point x="-14" y="586" type="line"/>
    </contour>
  </outline>
</glyph>
<glyph name="acutecomb" format="2">
  <advance width="0"/>
  <unicode hex="0301"/>
  <outline>
    <contour>
      <point x="34" y="717" type="line"/>
      <point x="143" y="717" type="line"/>
      <point x="1" y="586" type="line"/>
      <point x="-81" y="586" type="line"/>
    </contour>
  </outline>
</glyph>
<glyph name="emdash" format="2">
  <advance width="986"/>
  <unicode hex="2014"/>
  <outline>
    <contour>
      <point x="0" y="396" type="line"/>
      <point x="986" y="396" type="line"/>
      <point x="986" y="313" type="line"/>
      <point x="0" y="313" type="line"/>
    </contour>
  </outline>
</glyph>
<glyph name="quotedblright" format="2">
  <advance width="346"/>
  <unicode hex="201D"/>
  <outline>
    <contour>
      <point x="49" y="708" type="line"/>
      <point x="132" y="708" type="line"/>
      <point x="132" y="524" type="line"/>
      <point x="49" y="450" type="line"/>
    </contour>
    <contour>
      <point x="214" y="708" type="line"/>
      <point x="298" y="708" type="line"/>
      <point x="298" y="524" type="line"/>
      <point x="214" y="450" type="line"/>
    </contour>
  </outline>
</glyph>
<glyph name="dagger" format="2">
  <advance width="600"/>
  <unicode hex="2020"/>
  <outline>
    <contour>
      <point x="531" y="384" type="line"/>
      <point x="347" y="384" type="line"/>
      <point x="347" y="-157" type="line"/>
      <point x="254" y="-157" type="line"/>
      <point x="254" y="384" type="line"/>
      <point x="69" y="384" type="line"/>
      <point x="69" y="467" type="line"/>
      <point x="254" y="467" type="line"/>
      <point x="254" y="707" type="line"/>
      <point x="347" y="707" type="line"/>
      <point x="347" y="467" type="line"/>
      <point x="531" y="467" type="line"/>
    </contour>
  </outline>
</glyph>
<glyph name="guilsinglleft" format="2">
  <advance width="330"/>
  <unicode hex="2039"/>
  <outline>
    <contour>
      <point x="24" y="270" type="line"/>
      <point x="262" y="480" type="line"/>
      <point x="262" y="387" type="line"/>
      <point x="127" y="270" type="line"/>
      <point x="262" y="154" type="line"/>
      <point x="262" y="60" type="line"/>
    </contour>
  </outline>
</glyph>
<glyph name="Euro" format="2">
  <advance width="620"/>
  <unicode hex="20AC"/>
  <outline>
    <contour>
      <point x="103" y="120"/>
      <point x="103" y="236" type="qcurve" smooth="yes"/>
      <point x="103" y="257" type="line"/>
      <point x="35" y="257" type="line"/>
      <point x="35" y="323" type="line"/>
      <point x="103" y="323" type="line"/>
      <point x="103" y="389" type="line"/>
      <point x="35" y="389" type="line"/>
      <point x="35" y="455" type="line"/>
      <point x="103" y="455" type="line"/>
      <point x="103" y="478" type="line" smooth="yes"/>
      <point x="103" y="590"/>
      <point x="226" y="717"/>
      <point x="340" y="717" type="qcurve" smooth="yes"/>
      <point x="435" y="717"/>
      <point x="552" y="625"/>
      <point x="556" y="542" type="qcurve"/>
      <point x="473" y="542" type="line"/>
      <point x="458" y="636"/>
      <point x="341" y="636" type="qcurve" smooth="yes"/>
      <point x="195" y="636"/>
      <point x="195" y="479" type="qcurve" smooth="yes"/>
      <point x="195" y="455" type="line"/>
      <point x="444" y="455" type="line"/>
      <point x="431" y="389" type="line"/>
      <point x="195" y="389" type="line"/>
      <point x="195" y="323" type="line"/>
      <point x="417" y="323" type="line"/>
      <point x="403" y="257" type="line"/>
      <point x="195" y="257" type="line"/>
      <point x="195" y="233" type="line" smooth="yes"/>
      <point x="195" y="70"/>
      <point x="343" y="71" type="qcurve" smooth="yes"/>
      <point x="401" y="71"/>
      <point x="467" y="119"/>
      <point x="474" y="165" type="qcurve"/>
      <point x="560" y="165" type="line"/>
      <point x="554" y="82"/>
      <point x="436" y="-10"/>
      <point x="341" y="-10" type="qcurve" smooth="yes"/>
      <point x="226" y="-10"/>
    </contour>
  </outline>
</glyph>
